<svg xmlns="http://www.w3.org/2000/svg" viewBox="-0.023861435713737247 0.03613856428626275 0.17236753236814714 0.14772287142747448" width="512" height="512">
  <path d="M 0.09207106781186546 0.0679289321881345 A 0.05949747468305832 0.05949747468305832 0 1 0 0.09207106781186543 0.15207106781186552 L 0.13414213562373098 0.11000000000000001 L 0.09207106781186546 0.06792893218813452 Z M 0.07797630207889597 0.08202369792110403 A 0.039564465825021294 0.039564465825021294 0 1 0 0.07797630207889594 0.137976302078896 L 0.10592890517373843 0.1099763010159465 L 0.07797630207889597 0.08202369792110403 Z M 0.06018333478537116 0.08178121737833026 A 0.030000000000000016 0.030000000000000016 0 0 0 0.039902001501903366 0.08175056768123583 L 0.039874658206813324 0.09984400850971888 L 0.02178121737833027 0.09981666521462883 A 0.029999999999999995 0.029999999999999995 0 0 0 0.021750567681235806 0.12009799849809659 L 0.039844008509718865 0.12012534179318665 L 0.039816665214628816 0.13821878262166973 A 0.030000000000000002 0.030000000000000002 0 0 0 0.06009799849809661 0.1382494323187642 L 0.060125341793186654 0.12015599149028111 L 0.07821878262166974 0.12018333478537116 A 0.030000000000000002 0.030000000000000002 0 0 0 0.0782494323187642 0.09990200150190338 L 0.06015599149028112 0.09987465820681334 L 0.06018333478537116 0.08178121737833026 Z" fill="#ffffff" fill-rule="evenodd" stroke="none"/>
</svg>
